<svg width="24" height="24" viewBox="0 0 24 24" fill="none" xmlns="http://www.w3.org/2000/svg">
<path d="M21 7.99999L19 9.99999L17.5 6.29999C17.3585 5.92133 17.1057 5.59442 16.7747 5.36235C16.4437 5.13028 16.0502 5.00394 15.646 4.99999H8.4C7.9925 4.99063 7.59188 5.10601 7.25177 5.33066C6.91166 5.55531 6.64832 5.87852 6.497 6.25699L5 9.99999L3 7.99999" stroke="black" stroke-width="2" stroke-linecap="round" stroke-linejoin="round"/>
<path d="M7 14H7.01" stroke="black" stroke-width="2" stroke-linecap="round" stroke-linejoin="round"/>
<path d="M17 14H17.01" stroke="black" stroke-width="2" stroke-linecap="round" stroke-linejoin="round"/>
<path d="M19 10H5C3.89543 10 3 10.8954 3 12V16C3 17.1046 3.89543 18 5 18H19C20.1046 18 21 17.1046 21 16V12C21 10.8954 20.1046 10 19 10Z" stroke="black" stroke-width="2" stroke-linecap="round" stroke-linejoin="round"/>
<path d="M5 18V20" stroke="black" stroke-width="2" stroke-linecap="round" stroke-linejoin="round"/>
<path d="M19 18V20" stroke="black" stroke-width="2" stroke-linecap="round" stroke-linejoin="round"/>
</svg>
